<svg width="20" height="20" viewBox="0 0 20 20" fill="none" xmlns="http://www.w3.org/2000/svg">
<path d="M20 10C20 4.4775 15.5225 0 10 0C4.4775 0 0 4.4775 0 10C0 14.9915 3.6565 19.1285 8.4375 19.8785V12.8905H5.8985V10H8.4375V7.7975C8.4375 5.291 9.9305 3.9065 12.215 3.9065C13.309 3.9065 14.453 4.1015 14.453 4.1015V6.5625H13.193C11.95 6.5625 11.5625 7.3335 11.5625 8.124V10H14.336L13.8925 12.8905H11.5625V19.8785C16.3435 19.1285 20 14.9915 20 10Z" fill="#1877F2"/>
<path d="M13.8925 12.8905L14.336 10H11.5625V8.124C11.5625 7.3335 11.95 6.5625 13.193 6.5625H14.453V4.1015C14.453 4.1015 13.309 3.9065 12.215 3.9065C9.9305 3.9065 8.4375 5.291 8.4375 7.7975V10H5.8985V12.8905H8.4375V19.8785C8.958 19.9595 9.4795 20 10 20C10.5205 20 11.042 19.9595 11.5625 19.8785V12.8905H13.8925Z" fill="white"/>
</svg>