<svg width="20" height="20" viewBox="0 0 20 20" fill="none" xmlns="http://www.w3.org/2000/svg">
<path d="M19.8055 8.04545H19V8H10V12H15.6955C14.827 14.327 12.6115 16 10 16C6.6865 16 4 13.3135 4 10C4 6.6865 6.6865 4 10 4C11.5295 4 12.921 4.577 13.9805 5.5195L16.809 2.691C15.023 1.0265 12.634 0 10 0C4.4775 0 0 4.4775 0 10C0 15.5225 4.4775 20 10 20C15.5225 20 20 15.5225 20 10C20 9.3295 19.931 8.675 19.8055 8.04545Z" fill="#FFC107"/>
<path d="M1.1535 5.3455L4.4385 7.755C5.3835 5.554 7.525 4 10 4C11.5295 4 12.921 4.577 13.9805 5.5195L16.809 2.691C15.023 1.0265 12.634 0 10 0C6.159 0 2.828 2.1685 1.1535 5.3455Z" fill="#FF3D00"/>
<path d="M10 20C12.583 20 14.93 19.0115 16.7045 17.404L13.6085 14.785C12.5718 15.5742 11.3038 16.0009 10 16C7.399 16 5.1905 14.3415 4.3135 11.027L1.0975 13.5395C2.752 16.778 6.1135 20 10 20Z" fill="#4CAF50"/>
<path d="M19.8055 8.04545H19V8H10V12H15.6955C15.2843 13.1023 14.5562 14.0604 13.608 14.7855L13.6085 14.785L16.7045 17.404C16.4855 17.6025 20 15 20 10C20 9.3295 19.931 8.675 19.8055 8.04545Z" fill="#1976D2"/>
</svg>